<svg xmlns="http://www.w3.org/2000/svg" width="380.98" height="301.723" viewBox="0 0 380.98 301.723">
  <g id="Untitled-1_copy-01" data-name="Untitled-1 copy-01" transform="translate(-9.51 -49.141)">
    <path id="Path_287" data-name="Path 287" d="M44.09,92.94c.3-1.16.65-2.32,1.06-3.48,8.19-23.02,35.52-34.32,35.52-34.32s14.04,26.02,5.85,49.04c-3.08,8.65-8.86,15.63-14.87,20.99" fill="none" stroke="#f9dd80" stroke-linecap="round" stroke-linejoin="round" stroke-width="12"/>
    <path id="Path_288" data-name="Path 288" d="M16.06,162.54a42.478,42.478,0,0,1-.54-7.69c.55-24.43,22.94-43.74,22.94-43.74s21.51,20.29,20.96,44.72a49.446,49.446,0,0,1-5.27,20.36" fill="none" stroke="#f9dd80" stroke-linecap="round" stroke-linejoin="round" stroke-width="12"/>
    <path id="Path_289" data-name="Path 289" d="M26.81,238.32a42.79,42.79,0,0,1-5.08-7.12c-12.05-21.26-2.72-49.31-2.72-49.31s28.87,6.4,40.92,27.65c4.42,7.8,5.96,16.5,6.14,24.41" fill="none" stroke="#f9dd80" stroke-linecap="round" stroke-linejoin="round" stroke-width="12"/>
    <path id="Path_290" data-name="Path 290" d="M83.39,304.69a49.091,49.091,0,0,1-19.46-7.2c-20.4-13.44-24.86-42.68-24.86-42.68s28.62-7.44,49.02,6c10.71,7.05,17.02,18.45,20.61,27.69" fill="none" stroke="#f9dd80" stroke-linecap="round" stroke-linejoin="round" stroke-width="12"/>
    <path id="Path_291" data-name="Path 291" d="M141.42,344.72c-24.35-1.99-42.3-25.49-42.3-25.49s21.53-20.27,45.88-18.28,42.3,25.49,42.3,25.49S165.77,346.71,141.42,344.72Z" fill="none" stroke="#f9dd80" stroke-linecap="round" stroke-linejoin="round" stroke-width="12"/>
    <path id="Path_292" data-name="Path 292" d="M355.91,92.94c-.3-1.16-.65-2.32-1.06-3.48-8.19-23.02-35.52-34.32-35.52-34.32s-14.04,26.02-5.85,49.04c3.08,8.65,8.86,15.63,14.87,20.99" fill="none" stroke="#f9dd80" stroke-linecap="round" stroke-linejoin="round" stroke-width="12"/>
    <path id="Path_293" data-name="Path 293" d="M383.94,162.54a42.478,42.478,0,0,0,.54-7.69c-.55-24.43-22.94-43.74-22.94-43.74s-21.51,20.29-20.96,44.72a49.446,49.446,0,0,0,5.27,20.36" fill="none" stroke="#f9dd80" stroke-linecap="round" stroke-linejoin="round" stroke-width="12"/>
    <path id="Path_294" data-name="Path 294" d="M373.19,238.32a42.789,42.789,0,0,0,5.08-7.12c12.05-21.26,2.72-49.31,2.72-49.31s-28.87,6.4-40.92,27.65c-4.42,7.8-5.96,16.5-6.14,24.41" fill="none" stroke="#f9dd80" stroke-linecap="round" stroke-linejoin="round" stroke-width="12"/>
    <path id="Path_295" data-name="Path 295" d="M316.61,304.69a49.091,49.091,0,0,0,19.46-7.2c20.4-13.44,24.86-42.68,24.86-42.68s-28.62-7.44-49.02,6c-10.71,7.05-17.02,18.45-20.61,27.69" fill="none" stroke="#f9dd80" stroke-linecap="round" stroke-linejoin="round" stroke-width="12"/>
    <path id="Path_296" data-name="Path 296" d="M258.58,344.72c24.35-1.99,42.3-25.49,42.3-25.49S279.35,298.96,255,300.95s-42.3,25.49-42.3,25.49,21.53,20.27,45.88,18.28Z" fill="none" stroke="#f9dd80" stroke-linecap="round" stroke-linejoin="round" stroke-width="12"/>
    <path id="Path_297" data-name="Path 297" d="M226.65,149.77l56.17,8.31L242.06,197.6l9.45,55.99-50.19-26.55L151,253.33l9.74-55.93-40.55-39.74,56.2-8.02,25.26-50.85Z" fill="none" stroke="#f9dd80" stroke-linecap="round" stroke-linejoin="round" stroke-width="12"/>
  </g>
</svg>
