<svg xmlns="http://www.w3.org/2000/svg" width="374.525" height="317.141" viewBox="0 0 374.525 317.141">
  <g id="Untitled-1_copy-02" data-name="Untitled-1 copy-02" transform="translate(-12.74 -41.43)">
    <g id="Group_160450" data-name="Group 160450">
      <line id="Line_14" data-name="Line 14" x2="152.43" transform="translate(60.76 182.39)" fill="none" stroke="#f9dd80" stroke-linecap="round" stroke-linejoin="round" stroke-width="12"/>
      <line id="Line_15" data-name="Line 15" x2="65.85" transform="translate(60.76 229.82)" fill="none" stroke="#f9dd80" stroke-linecap="round" stroke-linejoin="round" stroke-width="12"/>
      <line id="Line_16" data-name="Line 16" x2="27.61" transform="translate(60.76 277.25)" fill="none" stroke="#f9dd80" stroke-linecap="round" stroke-linejoin="round" stroke-width="12"/>
    </g>
    <g id="Group_160451" data-name="Group 160451">
      <line id="Line_17" data-name="Line 17" x1="4.08" y1="12.82" transform="translate(193.09 277.7)" fill="none" stroke="#f9dd80" stroke-linecap="round" stroke-linejoin="round" stroke-width="12"/>
      <line id="Line_18" data-name="Line 18" x1="4.07" y1="12.83" transform="translate(174.26 218.37)" fill="none" stroke="#f9dd80" stroke-linecap="round" stroke-linejoin="round" stroke-width="12"/>
      <line id="Line_19" data-name="Line 19" y1="52.98" x2="166.88" transform="translate(187.7 199.92)" fill="none" stroke="#f9dd80" stroke-linecap="round" stroke-linejoin="round" stroke-width="12"/>
      <line id="Line_20" data-name="Line 20" x2="6.05" y2="19.07" transform="translate(129.28 261.87)" fill="none" stroke="#f9dd80" stroke-linecap="round" stroke-linejoin="round" stroke-width="12"/>
      <path id="Path_298" data-name="Path 298" d="M368.18,236.22l-171.02,54.3-81.99-10.13a3.718,3.718,0,0,1-2.05-6.44l61.13-55.57,171.02-54.3a18.812,18.812,0,0,1,22.37,9.33c.03.05.05.1.08.16a126.972,126.972,0,0,1,13.32,41.96c.01.08.02.17.03.25a18.8,18.8,0,0,1-12.91,20.45Z" fill="none" stroke="#f9dd80" stroke-linecap="round" stroke-linejoin="round" stroke-width="12"/>
    </g>
    <g id="Group_160452" data-name="Group 160452">
      <path id="Path_299" data-name="Path 299" d="M263.04,290.52v62.05H18.74V117.06L88.37,47.43H263.04V164.77" fill="none" stroke="#f9dd80" stroke-linecap="round" stroke-linejoin="round" stroke-width="12"/>
      <path id="Path_300" data-name="Path 300" d="M18.74,117.06H88.37V47.43" fill="none" stroke="#f9dd80" stroke-linecap="round" stroke-linejoin="round" stroke-width="12"/>
    </g>
  </g>
</svg>
