<svg xmlns="http://www.w3.org/2000/svg" width="339.041" height="364.238" viewBox="0 0 339.041 364.238">
  <g id="Untitled-1_copy-03" data-name="Untitled-1 copy-03" transform="translate(-30.479 -17.881)">
    <g id="Group_160454" data-name="Group 160454">
      <g id="Group_160453" data-name="Group 160453">
        <line id="Line_21" data-name="Line 21" x1="15.49" y2="21.32" transform="translate(284.6 55.44)" fill="none" stroke="#f9dd80" stroke-linecap="round" stroke-linejoin="round" stroke-width="12"/>
        <line id="Line_22" data-name="Line 22" x1="25.07" y2="8.15" transform="translate(336.89 140.58)" fill="none" stroke="#f9dd80" stroke-linecap="round" stroke-linejoin="round" stroke-width="12"/>
        <line id="Line_23" data-name="Line 23" x1="25.07" y1="8.14" transform="translate(336.89 237.69)" fill="none" stroke="#f9dd80" stroke-linecap="round" stroke-linejoin="round" stroke-width="12"/>
        <line id="Line_24" data-name="Line 24" x1="15.49" y1="21.32" transform="translate(284.6 309.65)" fill="none" stroke="#f9dd80" stroke-linecap="round" stroke-linejoin="round" stroke-width="12"/>
      </g>
      <line id="Line_25" data-name="Line 25" y1="21.32" x2="15.49" transform="translate(99.91 309.65)" fill="none" stroke="#f9dd80" stroke-linecap="round" stroke-linejoin="round" stroke-width="12"/>
      <line id="Line_26" data-name="Line 26" y1="8.14" x2="25.07" transform="translate(38.04 237.69)" fill="none" stroke="#f9dd80" stroke-linecap="round" stroke-linejoin="round" stroke-width="12"/>
      <line id="Line_27" data-name="Line 27" x2="25.07" y2="8.15" transform="translate(38.04 140.58)" fill="none" stroke="#f9dd80" stroke-linecap="round" stroke-linejoin="round" stroke-width="12"/>
      <line id="Line_28" data-name="Line 28" x2="15.49" y2="21.32" transform="translate(99.91 55.44)" fill="none" stroke="#f9dd80" stroke-linecap="round" stroke-linejoin="round" stroke-width="12"/>
      <line id="Line_29" data-name="Line 29" y2="24.95" transform="translate(199.46 23.88)" fill="none" stroke="#f9dd80" stroke-linecap="round" stroke-linejoin="round" stroke-width="12"/>
    </g>
    <path id="Path_301" data-name="Path 301" d="M155.07,190.63l38.39,34.43,51.47-55.43" fill="none" stroke="#f9dd80" stroke-linecap="round" stroke-linejoin="round" stroke-width="12"/>
    <g id="Group_160455" data-name="Group 160455">
      <path id="Path_302" data-name="Path 302" d="M200,84.02c-54.64,0-109.03,45.43-104.22,107.73,1.8,23.36,11.93,46.26,25.65,62.95,31.22,37.99,27.59,34.37,28.57,53.05H250.02c.98-18.68-2.65-15.05,28.57-53.05,13.71-16.69,23.85-39.59,25.65-62.95,4.8-62.3-49.58-107.73-104.22-107.73Z" fill="none" stroke="#f9dd80" stroke-linecap="round" stroke-linejoin="round" stroke-width="12"/>
      <path id="Path_303" data-name="Path 303" d="M149.99,307.74v18.32a50.057,50.057,0,0,0,50.06,50.06h0a50.063,50.063,0,0,0,50.06-50.53l-.1-17.85" fill="none" stroke="#f9dd80" stroke-linecap="round" stroke-linejoin="round" stroke-width="12"/>
    </g>
  </g>
</svg>
