<svg xmlns="http://www.w3.org/2000/svg" width="367.061" height="317.623" viewBox="0 0 367.061 317.623">
  <g id="Untitled-1_copy-04" data-name="Untitled-1 copy-04" transform="translate(-16.47 -42.42)">
    <line id="Line_30" data-name="Line 30" y1="186.46" transform="translate(22.78 92.2)" fill="none" stroke="#f9dd80" stroke-linecap="round" stroke-linejoin="round" stroke-width="12"/>
    <line id="Line_31" data-name="Line 31" y2="186.46" transform="translate(377.53 92.2)" fill="none" stroke="#f9dd80" stroke-linecap="round" stroke-linejoin="round" stroke-width="12"/>
    <path id="Path_304" data-name="Path 304" d="M377.53,92.2V48.42H22.78V92.2h354.6" fill="none" stroke="#f9dd80" stroke-linecap="round" stroke-linejoin="round" stroke-width="12"/>
    <line id="Line_32" data-name="Line 32" x1="0.31" transform="translate(22.47 92.2)" fill="none" stroke="#f9dd80" stroke-linecap="round" stroke-linejoin="round" stroke-width="12"/>
    <line id="Line_33" data-name="Line 33" x2="3.84" transform="translate(42.48 70.08)" fill="none" stroke="#f9dd80" stroke-linecap="round" stroke-linejoin="round" stroke-width="12"/>
    <line id="Line_34" data-name="Line 34" transform="translate(357.69 70.08)" fill="none" stroke="#f9dd80" stroke-linecap="round" stroke-linejoin="round" stroke-width="12"/>
    <line id="Line_35" data-name="Line 35" transform="translate(338.47 70.08)" fill="none" stroke="#f9dd80" stroke-linecap="round" stroke-linejoin="round" stroke-width="12"/>
    <line id="Line_36" data-name="Line 36" transform="translate(319.24 70.08)" fill="none" stroke="#f9dd80" stroke-linecap="round" stroke-linejoin="round" stroke-width="12"/>
    <g id="Group_160457" data-name="Group 160457">
      <g id="Group_160456" data-name="Group 160456">
        <path id="Path_305" data-name="Path 305" d="M313.77,242.28s-10.16,17.27-20.78,28.31a23.745,23.745,0,0,0-5.89,21.84c1.45,6.26,1.12,12.86-5.37,15.32-13.66,5.18-28.15,11.77-20.9,16.96s11.6,13.19,0,13.66c0,0-5.03,6.52-6.72,13" fill="none" stroke="#f9dd80" stroke-linecap="round" stroke-linejoin="round" stroke-width="12"/>
        <path id="Path_306" data-name="Path 306" d="M135.88,351.58c16.6-14.39,26.82-30.05,22.39-42.31-8.85-24.52-32.69-32.69-36.78-27.92s2.72,35.42-24.52,25.2,9.72-54.48,29.04-50.4c11.77,2.49,5.21-10.75,3.15-23.88" fill="none" stroke="#f9dd80" stroke-linecap="round" stroke-linejoin="round" stroke-width="12"/>
        <path id="Path_307" data-name="Path 307" d="M225.7,236.36c-.18,3.89.23,7.29,1.55,9.57,2.37,4.09-1.65,5.88-7.69,7.57" fill="none" stroke="#f9dd80" stroke-linecap="round" stroke-linejoin="round" stroke-width="12"/>
      </g>
      <path id="Path_308" data-name="Path 308" d="M294.69,225.43a189.735,189.735,0,0,1,80.17,90.46" fill="none" stroke="#f9dd80" stroke-linecap="round" stroke-linejoin="round" stroke-width="12"/>
      <path id="Path_309" data-name="Path 309" d="M27.36,313.9a189.772,189.772,0,0,1,89.52-93.92" fill="none" stroke="#f9dd80" stroke-linecap="round" stroke-linejoin="round" stroke-width="12"/>
    </g>
    <g id="Group_160460" data-name="Group 160460">
      <path id="Path_310" data-name="Path 310" d="M173.78,244.08l13.71,35.09,4.2,10.76h0a4.887,4.887,0,0,0,5.22,3.06l17.86-2.45a5.544,5.544,0,0,0,4.41-7.51l-1.44-3.68a5.55,5.55,0,0,0-5.97-3.47l-3.43.5L195.57,243.7" fill="none" stroke="#f9dd80" stroke-linecap="round" stroke-linejoin="round" stroke-width="12"/>
      <path id="Path_311" data-name="Path 311" d="M195.5,222.27l5.6,14.34a5.212,5.212,0,0,1-4.95,7.11l-22.67-.4-4.22-10.79" fill="none" stroke="#f9dd80" stroke-linecap="round" stroke-linejoin="round" stroke-width="12"/>
      <path id="Path_312" data-name="Path 312" d="M264.85,223.8l-63.98-5.24-30.5,11.92a25.9,25.9,0,0,1-33.54-14.69h0a25.9,25.9,0,0,1,14.69-33.54l30.5-11.92,43.47-47.23" fill="none" stroke="#f9dd80" stroke-linecap="round" stroke-linejoin="round" stroke-width="12"/>
      <path id="Path_313" data-name="Path 313" d="M226.28,125.12a8.452,8.452,0,0,1,4.8-10.95h0a8.452,8.452,0,0,1,10.95,4.8l37.78,96.67a8.452,8.452,0,0,1-4.8,10.95h0a8.452,8.452,0,0,1-10.95-4.8" fill="none" stroke="#f9dd80" stroke-linecap="round" stroke-linejoin="round" stroke-width="12"/>
      <g id="Group_160459" data-name="Group 160459">
        <line id="Line_37" data-name="Line 37" y1="6.68" x2="17.09" transform="translate(300.35 146.85)" fill="none" stroke="#f9dd80" stroke-linecap="round" stroke-linejoin="round" stroke-width="12"/>
        <g id="Group_160458" data-name="Group 160458">
          <line id="Line_38" data-name="Line 38" y1="18.29" x2="12.31" transform="translate(288.54 116.1)" fill="none" stroke="#f9dd80" stroke-linecap="round" stroke-linejoin="round" stroke-width="12"/>
          <line id="Line_39" data-name="Line 39" x1="21.46" y1="5.11" transform="translate(304.64 175.6)" fill="none" stroke="#f9dd80" stroke-linecap="round" stroke-linejoin="round" stroke-width="12"/>
        </g>
      </g>
      <path id="Path_314" data-name="Path 314" d="M260.75,143.58h1.75a19.527,19.527,0,0,1,19.52,19.52v3.5a19.534,19.534,0,0,1-19.52,19.52h-1.75V143.59h0Z" transform="translate(-41.39 110.11) rotate(-21.35)" fill="none" stroke="#f9dd80" stroke-linecap="round" stroke-linejoin="round" stroke-width="12"/>
    </g>
  </g>
</svg>
